<svg id="OBJECTS" xmlns="http://www.w3.org/2000/svg" xmlns:xlink="http://www.w3.org/1999/xlink" viewBox="0 0 498.32 316.64"><defs><style>.cls-1{fill:#ff5e69;}.cls-2{fill:#277fd9;}.cls-3{fill:#dca86e;}.cls-4{fill:url(#linear-gradient);}.cls-5{fill:#2167be;}.cls-6{fill:url(#linear-gradient-2);}.cls-7{fill:#fec4ad;}.cls-8{fill:url(#linear-gradient-3);}.cls-9{fill:url(#linear-gradient-4);}.cls-10{fill:#f8d2a1;}.cls-11,.cls-14{fill:none;stroke-miterlimit:10;}.cls-11{stroke:#d4dbe2;stroke-width:0.25px;}.cls-12{fill:#ffba01;}.cls-13{fill:#d2dceb;}.cls-14{stroke:#a6aeba;stroke-width:0.5px;}.cls-15{fill:#50cc85;}.cls-16{fill:#77e6a6;}.cls-17{fill:#f3ba7a;}.cls-18{fill:#a6aeba;}.cls-19{fill:#b6bfcc;}.cls-20{fill:#fff;}</style><linearGradient id="linear-gradient" x1="436.26" y1="347.88" x2="465.15" y2="347.88" gradientTransform="matrix(0.81, 0.59, -0.59, 0.81, 256.08, -190.81)" gradientUnits="userSpaceOnUse"><stop offset="0" stop-color="#343a44"/><stop offset="0.3" stop-color="#232d3e"/><stop offset="0.64" stop-color="#182439"/><stop offset="1" stop-color="#142138"/></linearGradient><linearGradient id="linear-gradient-2" x1="441.14" y1="359.3" x2="470.03" y2="359.3" gradientTransform="matrix(1, 0, 0, 1, 0, 0)" xlink:href="#linear-gradient"/><linearGradient id="linear-gradient-3" x1="428.55" y1="166.04" x2="459.87" y2="166.04" gradientTransform="matrix(-0.66, -0.75, -0.75, 0.66, 1011.11, 441.86)" xlink:href="#linear-gradient"/><linearGradient id="linear-gradient-4" x1="494.91" y1="269.18" x2="590.69" y2="269.18" gradientTransform="matrix(1, 0, 0, 1, 0, 0)" xlink:href="#linear-gradient"/></defs><title>404</title><path class="cls-1" d="M311.32,94h-9v8.36h10.05v2.51h-13V81.72h12.53v2.51H302.3v7.33h9Z" transform="translate(-125.84 -55.71)"/><path class="cls-1" d="M316.25,82a31.22,31.22,0,0,1,5.75-.48c3.2,0,5.27.58,6.71,1.89a5.78,5.78,0,0,1,1.82,4.41,6.09,6.09,0,0,1-4.37,5.92v.1c1.79.62,2.86,2.27,3.41,4.68a37,37,0,0,0,1.79,6.37h-3.1a30,30,0,0,1-1.55-5.54c-.69-3.2-1.93-4.41-4.65-4.51h-2.82v10.05h-3Zm3,10.57h3.06c3.2,0,5.23-1.76,5.23-4.41,0-3-2.17-4.3-5.34-4.34a12.33,12.33,0,0,0-3,.28Z" transform="translate(-125.84 -55.71)"/><path class="cls-1" d="M334.77,82a31.22,31.22,0,0,1,5.75-.48c3.2,0,5.27.58,6.71,1.89a5.78,5.78,0,0,1,1.82,4.41,6.09,6.09,0,0,1-4.37,5.92v.1c1.79.62,2.86,2.27,3.41,4.68a36.82,36.82,0,0,0,1.79,6.37h-3.1a30.11,30.11,0,0,1-1.55-5.54c-.69-3.2-1.93-4.41-4.65-4.51h-2.82v10.05h-3Zm3,10.57h3.06c3.2,0,5.23-1.76,5.23-4.41,0-3-2.17-4.3-5.34-4.34a12.32,12.32,0,0,0-3,.28Z" transform="translate(-125.84 -55.71)"/><path class="cls-1" d="M373.22,93.08c0,8-4.85,12.22-10.77,12.22-6.13,0-10.43-4.75-10.43-11.77,0-7.37,4.58-12.19,10.77-12.19S373.22,86.19,373.22,93.08Zm-18,.38c0,5,2.69,9.4,7.4,9.4s7.44-4.37,7.44-9.64c0-4.61-2.41-9.43-7.4-9.43S355.22,88.36,355.22,93.46Z" transform="translate(-125.84 -55.71)"/><path class="cls-1" d="M377.12,82a31.22,31.22,0,0,1,5.75-.48c3.2,0,5.27.58,6.71,1.89a5.78,5.78,0,0,1,1.82,4.41A6.09,6.09,0,0,1,387,93.77v.1c1.79.62,2.86,2.27,3.41,4.68a36.82,36.82,0,0,0,1.79,6.37h-3.1a30.15,30.15,0,0,1-1.55-5.54c-.69-3.2-1.93-4.41-4.65-4.51h-2.82v10.05h-3Zm3,10.57h3.06c3.2,0,5.23-1.76,5.23-4.41,0-3-2.17-4.3-5.34-4.34a12.32,12.32,0,0,0-3,.28Z" transform="translate(-125.84 -55.71)"/><path class="cls-1" d="M411.24,104.92V98.83h-10.4v-2l10-14.29h3.27V96.45h3.13v2.38h-3.13v6.09Zm0-8.47V89q0-1.76.1-3.51h-.1c-.69,1.31-1.24,2.27-1.86,3.3l-5.47,7.61v.07Z" transform="translate(-125.84 -55.71)"/><path class="cls-1" d="M434.41,93.49c0,7.61-2.82,11.81-7.78,11.81-4.37,0-7.33-4.1-7.4-11.5s3.24-11.64,7.78-11.64C431.72,82.17,434.41,86.37,434.41,93.49Zm-12.15.34c0,5.82,1.79,9.12,4.54,9.12,3.1,0,4.58-3.61,4.58-9.33,0-5.51-1.41-9.12-4.54-9.12C424.18,84.51,422.25,87.74,422.25,93.84Z" transform="translate(-125.84 -55.71)"/><path class="cls-1" d="M446.56,104.92V98.83h-10.4v-2l10-14.29h3.27V96.45h3.13v2.38h-3.13v6.09Zm0-8.47V89q0-1.76.1-3.51h-.1c-.69,1.31-1.24,2.27-1.86,3.3l-5.47,7.61v.07Z" transform="translate(-125.84 -55.71)"/><path class="cls-2" d="M281.76,117.64a18.43,18.43,0,0,1,3-.24,5.05,5.05,0,0,1,3.45,1,3.31,3.31,0,0,1,1.08,2.57,3.62,3.62,0,0,1-.95,2.63,5.1,5.1,0,0,1-3.76,1.35,5.46,5.46,0,0,1-1.28-.11v4.93h-1.59Zm1.59,5.93a5.32,5.32,0,0,0,1.31.13c1.92,0,3.08-.93,3.08-2.63s-1.15-2.41-2.9-2.41a6.65,6.65,0,0,0-1.5.13Z" transform="translate(-125.84 -55.71)"/><path class="cls-2" d="M295.57,125.92l-1.28,3.87h-1.64l4.18-12.3h1.92l4.2,12.3h-1.7l-1.31-3.87Zm4-1.24-1.2-3.54c-.27-.8-.46-1.53-.64-2.24h0c-.18.73-.38,1.48-.62,2.23l-1.2,3.56Z" transform="translate(-125.84 -55.71)"/><path class="cls-2" d="M317.48,129.25a11.46,11.46,0,0,1-3.78.68,5.78,5.78,0,0,1-6.31-6.21c0-3.67,2.54-6.35,6.66-6.35a7.6,7.6,0,0,1,3.07.57l-.38,1.3a6.37,6.37,0,0,0-2.72-.53,4.6,4.6,0,0,0-4.95,4.95c0,3.12,1.88,5,4.74,5a5.18,5.18,0,0,0,2.12-.33v-3.67h-2.5v-1.28h4.05Z" transform="translate(-125.84 -55.71)"/><path class="cls-2" d="M329.93,124h-4.78v4.44h5.33v1.33h-6.92v-12.3h6.64v1.33h-5.06v3.89h4.78Z" transform="translate(-125.84 -55.71)"/><path class="cls-2" d="M343.7,129.79v-12.3h1.73l3.94,6.22a34.82,34.82,0,0,1,2.21,4l0,0c-.15-1.64-.18-3.14-.18-5.06v-5.15h1.5v12.3h-1.61l-3.91-6.24a39,39,0,0,1-2.3-4.11l-.05,0c.09,1.55.13,3,.13,5.07v5.26Z" transform="translate(-125.84 -55.71)"/><path class="cls-2" d="M369.87,123.52c0,4.23-2.57,6.48-5.71,6.48s-5.53-2.52-5.53-6.24c0-3.91,2.43-6.46,5.71-6.46S369.87,119.87,369.87,123.52Zm-9.54.2c0,2.63,1.42,5,3.92,5s3.94-2.32,3.94-5.11c0-2.45-1.28-5-3.92-5S360.32,121,360.32,123.72Z" transform="translate(-125.84 -55.71)"/><path class="cls-2" d="M377.45,118.84h-3.74v-1.35h9.11v1.35h-3.76v10.95h-1.61Z" transform="translate(-125.84 -55.71)"/><path class="cls-2" d="M395.35,117.49H402v1.33h-5v4.09h4.65v1.31h-4.65v5.57h-1.59Z" transform="translate(-125.84 -55.71)"/><path class="cls-2" d="M418.4,123.52c0,4.23-2.57,6.48-5.71,6.48s-5.53-2.52-5.53-6.24c0-3.91,2.43-6.46,5.71-6.46S418.4,119.87,418.4,123.52Zm-9.54.2c0,2.63,1.42,5,3.92,5s3.94-2.32,3.94-5.11c0-2.45-1.28-5-3.92-5S408.85,121,408.85,123.72Z" transform="translate(-125.84 -55.71)"/><path class="cls-2" d="M425.69,117.49v7.28c0,2.76,1.22,3.92,2.87,3.92,1.83,0,3-1.2,3-3.92v-7.28h1.61v7.17c0,3.78-2,5.33-4.65,5.33s-4.42-1.44-4.42-5.26v-7.25Z" transform="translate(-125.84 -55.71)"/><path class="cls-2" d="M439.56,129.79v-12.3h1.73l3.94,6.22a34.88,34.88,0,0,1,2.21,4l0,0c-.15-1.64-.18-3.14-.18-5.06v-5.15h1.5v12.3h-1.61l-3.91-6.24a38.83,38.83,0,0,1-2.3-4.11l-.05,0c.09,1.55.13,3,.13,5.07v5.26Z" transform="translate(-125.84 -55.71)"/><path class="cls-2" d="M455.21,117.66a22.75,22.75,0,0,1,3.38-.26,7,7,0,0,1,5,1.53,5.67,5.67,0,0,1,1.73,4.42,6.51,6.51,0,0,1-1.77,4.78,7.58,7.58,0,0,1-5.44,1.77,25.62,25.62,0,0,1-2.88-.15Zm1.59,10.88a10,10,0,0,0,1.61.09c3.39,0,5.24-1.9,5.24-5.22,0-2.9-1.62-4.75-5-4.75a9,9,0,0,0-1.86.16Z" transform="translate(-125.84 -55.71)"/><polygon class="cls-3" points="422.51 245.61 455.37 316.64 459.07 316.63 430.66 241 422.51 245.61"/><polygon class="cls-3" points="388.52 247.13 355.65 316.64 351.95 316.63 380.37 245.55 388.52 247.13"/><path class="cls-4" d="M430.86,357.13l-16.7,14.62-19.69-13.86s6.7-2.25,18.19.81l11.76-9.88Z" transform="translate(-125.84 -55.71)"/><path class="cls-5" d="M527.55,276.51s-36.91,18.92-50,24.58-57.41,50.09-57.41,50.09,5.68,11.57,8.52,9.54c25.05-17.91,48.13-33.94,63-39.53,29.37-11.07,37.55-13.48,45.08-22.2C536.74,299,532.33,288.51,527.55,276.51Z" transform="translate(-125.84 -55.71)"/><path class="cls-6" d="M470,349.67l-4.81,21.67-24.07.48s4.07-5.78,15.15-10.11l3.63-14.93Z" transform="translate(-125.84 -55.71)"/><path class="cls-2" d="M528.44,271.7s-34.34,3.7-46.86,10.45S459.1,350.7,459.1,350.7s9.72,5.28,10.93,2a450.05,450.05,0,0,1,20.48-47.15c12.34-2.25,40.91,11.65,61.57-8.69C552.08,296.86,534.22,283.26,528.44,271.7Z" transform="translate(-125.84 -55.71)"/><path class="cls-7" d="M587.61,230a45.77,45.77,0,0,0-4,9.25l-14.12-1.3s7.29-11,6.73-17.75Z" transform="translate(-125.84 -55.71)"/><path class="cls-7" d="M584.58,207.14c-.8-.21-3.82-1-4.43-.8-.85.35.14,1.46-.46,2.13-1,1.1-2.9,1.12-4.14,1.79a8.24,8.24,0,0,0-3.35,3.08c-1.15,2,3,6.53,3.69,9.91,1.37,7.07,10.31,8.12,17.57,6a12.6,12.6,0,0,0,6.4-5.37c1.66-2.66.73-7.11-.67-9.76a12.38,12.38,0,0,0-3.94-4c-1.31-.9-1.67-4.66-3.25-4.92C592,205.2,586.38,207.62,584.58,207.14Z" transform="translate(-125.84 -55.71)"/><path class="cls-8" d="M604.85,226.12s-.24-1.19,1.8-3.12c6.78-6.38-.47-18.86-7.86-21-3.78-1.11-6.19.06-7.55-3.69.1.27-1.53,1-1.69,1.09a2.93,2.93,0,0,0-1.34,2.52c-.12,5.45,4.76,10.53,8.45,14,1.66,1.54-2.43.48-4.07.79-1.07.21-3.85,3.14-4.45,3.59,1.55,1.93,2.93.19,5,1.12,1.93.86.71,3.32-1.09,3.61a3.78,3.78,0,0,1-3.92-1.39c-1.28.69-1.48,4.83-2.48,5.91,1.38.76,9.46,2.18,11.35,2.16A8.08,8.08,0,0,0,604.85,226.12Z" transform="translate(-125.84 -55.71)"/><path class="cls-1" d="M587.15,232.16c3,33-35.07,64.7-35.07,64.7s-24.83.93-23.64-25.16c0,0,1.93-4.74,17.31-18.68,10.27-9.31,17.49-23.2,24.71-22.92C590.2,230.86,587.15,232.16,587.15,232.16Z" transform="translate(-125.84 -55.71)"/><path class="cls-9" d="M494.91,298.68s22.9,8.54,53.43-3S587.19,230,587.19,230l3.49,1.77s-3.4,59.66-43.59,72.63c-30.72,9.91-52.18-1.89-52.18-1.89Z" transform="translate(-125.84 -55.71)"/><path class="cls-10" d="M583.48,265.16s3.66,12.67,3.86,19-2.5,27.76-2.5,27.76l5.82.74s5.17-25.56,5.29-33.9-4.69-21.86-4.69-21.86Z" transform="translate(-125.84 -55.71)"/><path class="cls-1" d="M583.12,265.69c4.22,18.45,2.47,43.19,2.47,43.19l6.31.4c6.92-14.48,6.27-46.56,2.61-60.05-2.15-7.93-3.42-15.92-8.78-17.16-3.35-.77-10.25,1.68-11.18,5C572.55,244.27,581,256.64,583.12,265.69Z" transform="translate(-125.84 -55.71)"/><path class="cls-10" d="M582.24,315.1c-1.39,2.65-2,4.6-1.2,5.27.57.46,1.48-2.11,2.58-3a8,8,0,0,1-.32,4.77c-.78,1.91-.71,3.55.74,3.69s3.82,0,4.34-1.16,1.72-6.23,2.37-7.9-.21-3.59,0-4.55-4.29-2.56-4.29-2.56c-.25.38-1.65,2.29-1.65,2.29a14.72,14.72,0,0,1-1.58,1.67A5.61,5.61,0,0,0,582.24,315.1Z" transform="translate(-125.84 -55.71)"/><line class="cls-11" x1="421.94" x2="421.94" y2="44"/><circle class="cls-12" cx="547.88" cy="116.04" r="7.72" transform="translate(264.19 597.65) rotate(-85.59)"/><polygon class="cls-13" points="458.38 63.6 385.5 63.6 417.4 40.4 426.49 40.4 458.38 63.6"/><line class="cls-11" x1="78.88" x2="78.88" y2="44"/><circle class="cls-12" cx="204.81" cy="116.04" r="7.72" transform="translate(-52.48 255.61) rotate(-85.59)"/><polygon class="cls-13" points="115.31 63.6 42.44 63.6 74.33 40.4 83.42 40.4 115.31 63.6"/><line class="cls-14" y1="316.29" x2="498.32" y2="316.29"/><path class="cls-15" d="M307,218.91a30.72,30.72,0,0,1,4.33-7.12c2.79-3.35,7-8.94,7-8.94s-2,4-4.79,8.46A34.33,34.33,0,0,1,307,218.91Z" transform="translate(-125.84 -55.71)"/><path class="cls-15" d="M309.88,212.37a17.8,17.8,0,0,0,4.95-7.57c1.86-5.14,3.55-9.06,3.55-9.06a72.61,72.61,0,0,0-5.74,9.71C310.92,209.43,309.88,212.37,309.88,212.37Z" transform="translate(-125.84 -55.71)"/><path class="cls-15" d="M307.2,218.18a64.78,64.78,0,0,0,1.94-10.58c.32-4.7.28-7.64.28-7.64s-2,8.52-2.66,12.14A11.71,11.71,0,0,0,307.2,218.18Z" transform="translate(-125.84 -55.71)"/><path class="cls-15" d="M305.81,222.09a34.2,34.2,0,0,0-1.19-11.48,36,36,0,0,1-1.8-8.86,36.56,36.56,0,0,0,.15,10.56A70,70,0,0,0,305.81,222.09Z" transform="translate(-125.84 -55.71)"/><path class="cls-15" d="M306.31,220.75s4.3-3.67,6.48-4.54a25.82,25.82,0,0,0,5.2-3.38s-3.74,4.79-5.83,5.73S306.31,220.75,306.31,220.75Z" transform="translate(-125.84 -55.71)"/><path class="cls-15" d="M304.83,225.89a17.37,17.37,0,0,0-1.51-8,42,42,0,0,1-2.37-7s-.11,6.36,1.15,8.75S304.83,225.89,304.83,225.89Z" transform="translate(-125.84 -55.71)"/><path class="cls-15" d="M305.23,223.48a13.91,13.91,0,0,1,4.86-2,11.7,11.7,0,0,0,3-.66,5.65,5.65,0,0,1-4.15,2.57C306,223.79,305.23,223.48,305.23,223.48Z" transform="translate(-125.84 -55.71)"/><path class="cls-15" d="M303.61,229c.53-2.08,1.22-5.3,1.93-7.44a65.73,65.73,0,0,1,5.29-10.85c-2.27,5-3.94,7.88-5.08,12.23-.45,1.72-1.24,4.12-1.66,5.68C304,229.09,303.68,229.45,303.61,229Z" transform="translate(-125.84 -55.71)"/><path class="cls-16" d="M304.71,220.61a32.65,32.65,0,0,0-1.89-8.65c-1.65-4.34-3.9-11.39-3.9-11.39s.67,4.7,1.88,10.16A36.49,36.49,0,0,0,304.71,220.61Z" transform="translate(-125.84 -55.71)"/><path class="cls-16" d="M304.07,213a18.92,18.92,0,0,1-2.36-9.32c-.09-5.81-.43-10.33-.43-10.33a77.17,77.17,0,0,1,2.4,11.75C304,209.72,304.07,213,304.07,213Z" transform="translate(-125.84 -55.71)"/><path class="cls-16" d="M304.75,219.8a68.86,68.86,0,0,1,1.71-11.3c1.31-4.83,2.36-7.78,2.36-7.78s-.9,9.27-1.53,13.12A12.45,12.45,0,0,1,304.75,219.8Z" transform="translate(-125.84 -55.71)"/><path class="cls-16" d="M304.79,224.21A36.35,36.35,0,0,1,310,213.08a38.32,38.32,0,0,0,4.87-8.28A38.87,38.87,0,0,1,311,215.36,74.44,74.44,0,0,1,304.79,224.21Z" transform="translate(-125.84 -55.71)"/><path class="cls-16" d="M304.75,222.69s-3.05-5.18-4.94-6.8a27.45,27.45,0,0,1-4.06-5.2s2.1,6.1,3.87,7.78S304.75,222.69,304.75,222.69Z" transform="translate(-125.84 -55.71)"/><path class="cls-16" d="M304.47,228.37a18.46,18.46,0,0,1,4.28-7.52,44.64,44.64,0,0,0,4.8-6.22s-2.09,6.44-4.18,8.4S304.47,228.37,304.47,228.37Z" transform="translate(-125.84 -55.71)"/><path class="cls-16" d="M304.9,225.81a14.79,14.79,0,0,0-4.2-3.68,12.43,12.43,0,0,1-2.81-1.71,6,6,0,0,0,3.28,4C304,225.84,304.9,225.81,304.9,225.81Z" transform="translate(-125.84 -55.71)"/><path class="cls-15" d="M304.6,232c.18-2.28.6-5.75.63-8.15a69.86,69.86,0,0,0-1.56-12.74c.54,5.86,1.23,9.28.87,14.05-.14,1.89-.18,4.57-.3,6.28C304.17,231.87,304.39,232.35,304.6,232Z" transform="translate(-125.84 -55.71)"/><path class="cls-15" d="M301.44,221.5a30.72,30.72,0,0,0-4.33-7.12c-2.79-3.35-7-8.94-7-8.94s2,4,4.79,8.46A34.33,34.33,0,0,0,301.44,221.5Z" transform="translate(-125.84 -55.71)"/><path class="cls-15" d="M298.55,215a17.79,17.79,0,0,1-4.95-7.57c-1.86-5.14-3.55-9.06-3.55-9.06a72.6,72.6,0,0,1,5.74,9.71C297.51,212,298.55,215,298.55,215Z" transform="translate(-125.84 -55.71)"/><path class="cls-15" d="M301.23,220.77a64.79,64.79,0,0,1-1.94-10.58c-.32-4.7-.28-7.64-.28-7.64s2,8.52,2.66,12.14A11.71,11.71,0,0,1,301.23,220.77Z" transform="translate(-125.84 -55.71)"/><path class="cls-15" d="M302.61,224.68a34.2,34.2,0,0,1,1.19-11.48,36.06,36.06,0,0,0,1.8-8.86,36.57,36.57,0,0,1-.15,10.56A70,70,0,0,1,302.61,224.68Z" transform="translate(-125.84 -55.71)"/><path class="cls-15" d="M302.11,223.34s-4.3-3.67-6.48-4.54a25.82,25.82,0,0,1-5.2-3.38s3.74,4.79,5.83,5.73S302.11,223.34,302.11,223.34Z" transform="translate(-125.84 -55.71)"/><path class="cls-15" d="M303.6,228.48a17.37,17.37,0,0,1,1.51-8,42,42,0,0,0,2.37-7s.11,6.36-1.15,8.75S303.6,228.48,303.6,228.48Z" transform="translate(-125.84 -55.71)"/><path class="cls-15" d="M303.2,226.07a13.91,13.91,0,0,0-4.86-2,11.71,11.71,0,0,1-3-.66,5.65,5.65,0,0,0,4.15,2.57C302.41,226.38,303.2,226.07,303.2,226.07Z" transform="translate(-125.84 -55.71)"/><path class="cls-15" d="M304.81,231.64c-.53-2.08-1.22-5.3-1.93-7.44a65.72,65.72,0,0,0-5.29-10.85c2.27,5,3.94,7.88,5.08,12.23.45,1.72,1.24,4.12,1.66,5.68C304.4,231.68,304.74,232,304.81,231.64Z" transform="translate(-125.84 -55.71)"/><polygon class="cls-13" points="184.44 190.45 172.77 190.45 169.16 169.9 188.46 169.9 184.44 190.45"/><polygon class="cls-3" points="317.73 196.1 336.97 316.4 340.68 316.39 325.45 196.07 317.73 196.1"/><polygon class="cls-3" points="185.09 196.15 160.03 316.58 155.04 316.59 174.69 196.18 185.09 196.15"/><rect class="cls-3" x="145.65" y="189.07" width="207.03" height="9.27"/><rect class="cls-17" x="135.72" y="189.07" width="226.88" height="6.15"/><polygon class="cls-18" points="299.15 185.82 291.1 185.82 283.05 134.45 289.17 134.45 299.15 185.82"/><polygon class="cls-13" points="296.84 185.82 265.41 185.82 257.36 134.45 288.79 134.45 296.84 185.82"/><rect class="cls-13" x="264.99" y="184.66" width="34.16" height="3.83"/><rect class="cls-18" x="299.15" y="184.66" width="43.07" height="3.83"/><path class="cls-18" d="M405.42,218.34c.91,3.93.27,8.18-1.43,9.49s-3.81-.82-4.72-4.76-.27-8.18,1.43-9.49S404.51,214.41,405.42,218.34Z" transform="translate(-125.84 -55.71)"/><path class="cls-18" d="M356.53,244h-4.46a3.74,3.74,0,0,1-3.69-3.16l-1.78-11.47H362l-1.78,11.47A3.74,3.74,0,0,1,356.53,244Z" transform="translate(-125.84 -55.71)"/><path class="cls-18" d="M360.66,241.58l-.49,0-.21,0-.17-.13c-.11-.08-2.71-2.12-2.71-5s2-5.41,4.42-5.41a4.61,4.61,0,0,1,3.59,1.52,4.68,4.68,0,0,1,.82,4h0C365.33,239.75,363.42,241.58,360.66,241.58Zm-.17-1.4c2.81.09,3.7-2.07,4-3.92h0a3.37,3.37,0,0,0-.52-2.86,3.22,3.22,0,0,0-2.51-1c-1.66,0-3,1.8-3,4A5.61,5.61,0,0,0,360.5,240.17Z" transform="translate(-125.84 -55.71)"/><polygon class="cls-13" points="219.23 189.32 238.75 189.32 241.86 185.87 216.12 185.87 219.23 189.32"/><rect class="cls-19" x="22.39" y="114.33" width="93.4" height="202.04"/><rect class="cls-13" x="33.14" y="123.16" width="71.9" height="21.18"/><rect class="cls-20" x="59.69" y="131.18" width="18.8" height="5.14" rx="0.8" ry="0.8"/><rect class="cls-13" x="33.14" y="150.11" width="71.9" height="21.18"/><rect class="cls-20" x="59.69" y="158.14" width="18.8" height="5.14" rx="0.8" ry="0.8"/><rect class="cls-13" x="33.14" y="177.07" width="71.9" height="21.18"/><rect class="cls-20" x="59.69" y="185.1" width="18.8" height="5.14" rx="0.8" ry="0.8"/><rect class="cls-13" x="33.14" y="204.34" width="71.9" height="103.84"/><rect class="cls-20" x="59.69" y="212.36" width="18.8" height="5.14" rx="0.8" ry="0.8"/></svg>