<svg xmlns="http://www.w3.org/2000/svg" viewBox="0 0 248.58 215.89"><defs><style>.cls-1{fill:#fff;}.cls-2{fill:#2c3e50;}.cls-3{fill:#f5b7b1;}.cls-4,.cls-5{fill:none;stroke:#2c3e50;stroke-miterlimit:10;stroke-width:2.35px;}.cls-5{stroke-linecap:round;}</style></defs><title>avatar</title><g id="OBJECTS"><rect class="cls-1" width="248.58" height="215.89"/><path class="cls-2" d="M169.59,82.66A8.78,8.78,0,0,0,166.51,76a8.79,8.79,0,0,0-4.13-12.72,8.79,8.79,0,0,0-7.86-10.82,8.79,8.79,0,0,0-10.82-7.86A8.79,8.79,0,0,0,131,40.43a8.79,8.79,0,0,0-13.38,0,8.79,8.79,0,0,0-12.72,4.13A8.79,8.79,0,0,0,94,52.43a8.79,8.79,0,0,0-7.86,10.82A8.79,8.79,0,0,0,82,76a8.79,8.79,0,0,0,0,13.38,8.79,8.79,0,0,0,4.13,12.72A8.79,8.79,0,0,0,94,112.9a8.79,8.79,0,0,0,10.82,7.86,8.78,8.78,0,0,0,5.41,5c.2.07.4.11.6.16v-7.6a19,19,0,0,1-10.05-13h-1.6a6.57,6.57,0,0,1,0-13.14h1.19V82.58a17.1,17.1,0,0,1,17.1-17.1H131a17.1,17.1,0,0,1,17.1,17.1v9.76l0-.2h1.19a6.57,6.57,0,1,1,0,13.14h-1.62a19,19,0,0,1-10,13v7.61c.19,0,.38-.09.57-.15a8.78,8.78,0,0,0,5.41-5,8.79,8.79,0,0,0,10.82-7.86,8.79,8.79,0,0,0,7.86-10.82,8.79,8.79,0,0,0,4.13-12.72A8.78,8.78,0,0,0,169.59,82.66Z"/><circle class="cls-3" cx="108.17" cy="98.7" r="2.68"/><circle class="cls-3" cx="140.37" cy="98.7" r="2.68"/><path class="cls-4" d="M148.13,101.39a19,19,0,0,1-19,19h-9.78a19,19,0,0,1-19-19V82.58a17.1,17.1,0,0,1,17.1-17.1H131a17.1,17.1,0,0,1,17.1,17.1Z"/><path class="cls-4" d="M100.42,92.13H99.22a6.57,6.57,0,0,0-6.57,6.57h0a6.57,6.57,0,0,0,6.57,6.57h1.6"/><path class="cls-4" d="M148.15,92.13h1.19a6.57,6.57,0,0,1,6.57,6.57h0a6.57,6.57,0,0,1-6.57,6.57h-1.22"/><path class="cls-4" d="M110.87,118.71v7.6a13.42,13.42,0,0,0,13.42,13.42h0a13.42,13.42,0,0,0,13.42-13.42v-7.6"/><path class="cls-5" d="M110.87,126.31l-21.31,12.3a19.11,19.11,0,0,0-9.36,13.86l-3.67,25.82"/><path class="cls-5" d="M137.71,126.31,159,138.61a19.11,19.11,0,0,1,9.36,13.86l3.67,25.82"/><path class="cls-2" d="M127.73,120.91l-16.86,3.85v-6s.59.3,2,.9S123.68,121.57,127.73,120.91Z"/><path class="cls-3" d="M111.78,101.09h25v.2a12.49,12.49,0,0,1-12.49,12.49h0a12.49,12.49,0,0,1-12.49-12.49Z"/><circle class="cls-2" cx="113.54" cy="89.26" r="2.69"/><circle class="cls-2" cx="135" cy="89.26" r="2.69"/><rect class="cls-4" x="105.1" y="83.88" width="16.87" height="10.75" rx="3.62" ry="3.62"/><rect class="cls-4" x="126.57" y="83.88" width="16.87" height="10.75" rx="3.62" ry="3.62"/><line class="cls-4" x1="105.1" y1="86.64" x2="100.42" y2="86.64"/><line class="cls-4" x1="143.44" y1="86.64" x2="148.13" y2="86.64"/><line class="cls-4" x1="121.98" y1="86.64" x2="126.57" y2="86.64"/><path class="cls-5" d="M117.73,81.24a9.75,9.75,0,0,0-11.09-.13"/><path class="cls-5" d="M129.46,81.24a9.75,9.75,0,0,1,11.09-.13"/><path class="cls-5" d="M124.9,94.63s1.91,1.64,1.8,3.26-2.43,1.24-2.43,1.24"/><line class="cls-5" x1="89.56" y1="138.61" x2="89.56" y2="178.29"/><line class="cls-5" x1="159.02" y1="138.61" x2="159.02" y2="178.29"/><path class="cls-5" d="M106.64,133.12s3.24,11.2,18.85,11.2c13.15,0,14.88-11.2,14.88-11.2"/><path class="cls-5" d="M105.1,152.3s13.71,22.4,32.92,26.25"/></g></svg>